# xmcd CD database file
#
# Track frame offsets:
#	183
#	4868
#	28043
#	62958
#	74583
#	87595
#	100308
#	116108
#	142133
#	166408
#	186483
#	202133
#	215283
#	226683
#	239483
#
# Disc length: 3358 seconds
#
# Revision: 0
# Processed by: cddbd v1.5.2PL0 Copyright (c) Steve Scherf et al.
# Submitted via: CDex 1.51
#
DISCID=e80d1c0f
DTITLE=bud powell - cookin at saint-germain 57-59
DYEAR=1957
DGENRE=Jazz
TTITLE0=bud on bach
TTITLE1=yesterdays
TTITLE2=be bop
TTITLE3=crossing the channel
TTITLE4=john's abbey
TTITLE5=shaw nuff
TTITLE6=just one of those things
TTITLE7=omicron
TTITLE8=buzzy
TTITLE9=miguel's party
TTITLE10=no problem
TTITLE11=52nd street theme
TTITLE12=pie eyes
TTITLE13=miguel's party
TTITLE14=anthropology
EXTD=YEAR: 1957
EXTT0=
EXTT1=
EXTT2=
EXTT3=
EXTT4=
EXTT5=
EXTT6=
EXTT7=
EXTT8=
EXTT9=
EXTT10=
EXTT11=
EXTT12=
EXTT13=
EXTT14=
PLAYORDER=
